<?xml version="1.0" encoding="UTF-8" standalone="no"?>
<!-- Created with Inkscape (http://www.inkscape.org/) -->

<svg
   xmlns:dc="http://purl.org/dc/elements/1.1/"
   xmlns:cc="http://creativecommons.org/ns#"
   xmlns:rdf="http://www.w3.org/1999/02/22-rdf-syntax-ns#"
   xmlns:svg="http://www.w3.org/2000/svg"
   xmlns="http://www.w3.org/2000/svg"
   xmlns:xlink="http://www.w3.org/1999/xlink"
   xmlns:sodipodi="http://sodipodi.sourceforge.net/DTD/sodipodi-0.dtd"
   xmlns:inkscape="http://www.inkscape.org/namespaces/inkscape"
   width="30"
   height="60"
   id="svg2"
   version="1.1"
   inkscape:version="0.48.5 r10040"
   sodipodi:docname="tagadd.svg"
   inkscape:export-filename="/Users/gamma/Sites/dokuwiki/lib/plugins/tagadd/images/tagadd.png"
   inkscape:export-xdpi="90"
   inkscape:export-ydpi="90">
  <defs
     id="defs4">
    <linearGradient
       id="linearGradient3809">
      <stop
         id="stop3811"
         offset="0"
         style="stop-color:#b9daff;stop-opacity:1;" />
      <stop
         id="stop3813"
         offset="1"
         style="stop-color:#7cb9ff;stop-opacity:1;" />
    </linearGradient>
    <linearGradient
       id="linearGradient3766">
      <stop
         style="stop-color:#e7eff9;stop-opacity:1;"
         offset="0"
         id="stop3768" />
      <stop
         style="stop-color:#97bbe4;stop-opacity:1;"
         offset="1"
         id="stop3770" />
    </linearGradient>
    <linearGradient
       inkscape:collect="always"
       xlink:href="#linearGradient3809"
       id="linearGradient3772"
       x1="12.446886"
       y1="6.6439481"
       x2="28.795967"
       y2="26.607134"
       gradientUnits="userSpaceOnUse"
       gradientTransform="matrix(0.91748274,0,0,1.0018441,-1.4198031,1020.706)" />
    <linearGradient
       inkscape:collect="always"
       xlink:href="#linearGradient3766"
       id="linearGradient3805"
       gradientUnits="userSpaceOnUse"
       gradientTransform="matrix(0.91748274,0,0,1.0018441,-1.4198031,990.706)"
       x1="12.446886"
       y1="6.6439481"
       x2="28.795967"
       y2="26.607134" />
    <linearGradient
       inkscape:collect="always"
       xlink:href="#linearGradient3766"
       id="linearGradient3807"
       gradientUnits="userSpaceOnUse"
       gradientTransform="matrix(0.91748274,0,0,1.0018441,-1.4198031,990.706)"
       x1="12.446886"
       y1="6.6439481"
       x2="28.795967"
       y2="26.607134" />
  </defs>
  <sodipodi:namedview
     id="base"
     pagecolor="#ffffff"
     bordercolor="#666666"
     borderopacity="1.0"
     inkscape:pageopacity="0.0"
     inkscape:pageshadow="2"
     inkscape:zoom="20"
     inkscape:cx="9"
     inkscape:cy="18.079268"
     inkscape:document-units="px"
     inkscape:current-layer="layer1"
     showgrid="true"
     inkscape:window-width="1662"
     inkscape:window-height="909"
     inkscape:window-x="1796"
     inkscape:window-y="188"
     inkscape:window-maximized="0">
    <inkscape:grid
       type="xygrid"
       id="grid3801"
       empspacing="5"
       visible="true"
       enabled="true"
       snapvisiblegridlinesonly="false"
       spacingx="5px"
       spacingy="5px" />
  </sodipodi:namedview>
  <metadata
     id="metadata7">
    <rdf:RDF>
      <cc:Work
         rdf:about="">
        <dc:format>image/svg+xml</dc:format>
        <dc:type
           rdf:resource="http://purl.org/dc/dcmitype/StillImage" />
        <dc:title></dc:title>
      </cc:Work>
    </rdf:RDF>
  </metadata>
  <g
     inkscape:label="Layer 1"
     inkscape:groupmode="layer"
     id="layer1"
     transform="translate(0,-992.3622)">
    <path
       style="opacity:0.80000000000000004;fill:url(#linearGradient3772);fill-opacity:1.0;stroke:#d6d6d6;stroke-width:0.10000000000000001;stroke-linecap:round;stroke-linejoin:round;stroke-miterlimit:4;stroke-opacity:1;stroke-dasharray:none"
       d="m 5.260618,1026.4666 0.1433567,9.7679 11.5545483,12.6483 8.343359,-9.1105 -11.58322,-12.617 -8.458044,-0.6887 z m 3.755945,2.3481 c 0.4633664,0 0.9397009,0.1807 1.29021,0.5635 0.701021,0.7655 0.672352,1.9897 -0.02867,2.7551 -0.7010203,0.7655 -1.8220577,0.7655 -2.5230778,0 -0.70102,-0.7654 -0.70102,-1.9896 0,-2.7551 0.3505097,-0.3828 0.7981724,-0.5635 1.2615388,-0.5635 z m 7.225177,7.3886 1.949651,0 0,2.5046 2.293707,0 0,2.1289 -2.293707,0 0,2.5046 -1.949651,0 0,-2.5046 -2.293707,0 0,-2.1289 2.293707,0 0,-2.5046 z"
       id="rect2985"
       inkscape:connector-curvature="0" />
    <path
       inkscape:connector-curvature="0"
       id="path3803"
       d="m 5.260618,996.4666 0.1433567,9.7679 11.5545483,12.6483 8.343359,-9.1105 -11.58322,-12.617 -8.458044,-0.6887 z m 3.755945,2.3481 c 0.4633664,0 0.9397009,0.1807 1.29021,0.5635 0.701021,0.7655 0.672352,1.9897 -0.02867,2.7551 -0.7010203,0.7655 -1.8220577,0.7655 -2.5230778,0 -0.70102,-0.7654 -0.70102,-1.9896 0,-2.7551 0.3505097,-0.3828 0.7981724,-0.5635 1.2615388,-0.5635 z m 7.225177,7.3886 1.949651,0 0,2.5046 2.293707,0 0,2.1289 -2.293707,0 0,2.5046 -1.949651,0 0,-2.5046 -2.293707,0 0,-2.1289 2.293707,0 0,-2.5046 z"
       style="opacity:0.80000000000000004;fill:url(#linearGradient3805);fill-opacity:1;stroke:url(#linearGradient3807);stroke-width:0.95873606000000000;stroke-linecap:round;stroke-linejoin:round;stroke-miterlimit:4;stroke-opacity:1;stroke-dasharray:none" />
  </g>
</svg>
