<?xml version="1.0" encoding="UTF-8" standalone="no"?>

<svg xmlns="http://www.w3.org/2000/svg" width="24" height="24" viewBox="0 0 30 30">

  <g
     transform="translate(0,-992.3622)">
    <path

       d="m 5.260618,1026.4666 0.1433567,9.7679 11.5545483,12.6483 8.343359,-9.1105 -11.58322,-12.617 -8.458044,-0.6887 z m 3.755945,2.3481 c 0.4633664,0 0.9397009,0.1807 1.29021,0.5635 0.701021,0.7655 0.672352,1.9897 -0.02867,2.7551 -0.7010203,0.7655 -1.8220577,0.7655 -2.5230778,0 -0.70102,-0.7654 -0.70102,-1.9896 0,-2.7551 0.3505097,-0.3828 0.7981724,-0.5635 1.2615388,-0.5635 z m 7.225177,7.3886 1.949651,0 0,2.5046 2.293707,0 0,2.1289 -2.293707,0 0,2.5046 -1.949651,0 0,-2.5046 -2.293707,0 0,-2.1289 2.293707,0 0,-2.5046 z"
/>
    <path
       inkscape:connector-curvature="0"
       id="path3803"
       d="m 5.260618,996.4666 0.1433567,9.7679 11.5545483,12.6483 8.343359,-9.1105 -11.58322,-12.617 -8.458044,-0.6887 z m 3.755945,2.3481 c 0.4633664,0 0.9397009,0.1807 1.29021,0.5635 0.701021,0.7655 0.672352,1.9897 -0.02867,2.7551 -0.7010203,0.7655 -1.8220577,0.7655 -2.5230778,0 -0.70102,-0.7654 -0.70102,-1.9896 0,-2.7551 0.3505097,-0.3828 0.7981724,-0.5635 1.2615388,-0.5635 z m 7.225177,7.3886 1.949651,0 0,2.5046 2.293707,0 0,2.1289 -2.293707,0 0,2.5046 -1.949651,0 0,-2.5046 -2.293707,0 0,-2.1289 2.293707,0 0,-2.5046 z"
      />
  </g>
</svg>
